inDegrees=no
num_controls=7
num_derivatives=13
num_iterations=135
num_multipliers=7
num_parameters=0
num_slacks=7
num_states=26
objective=0.469837
objective_accelerations=0.063234
objective_balance=0.002129
objective_effort=0.020102
objective_height=0.374891
objective_ligament=0.009482
solver_duration=1867.541359
status=Solve_Succeeded
success=true
DataType=double
version=3
OpenSimVersion=4.5
endheader
time	/jointset/ground_pelvis/pelvis_tilt/value	/jointset/ground_pelvis/pelvis_tx/value	/jointset/ground_pelvis/pelvis_ty/value	/jointset/hip_l/hip_flexion_l/value	/jointset/hip_l/hip_adduction_l/value	/jointset/hip_l/hip_rotation_l/value	/jointset/back/lumbar_extension/value	/jointset/patellofemoral_l/patellar_flexion_l/value	/jointset/knee_l/knee_flexion_l/value	/jointset/knee_l/knee_adduction_l/value	/jointset/knee_l/knee_rotation_l/value	/jointset/ankle_l/ankle_angle_l/value	/jointset/subtalar_l/subtalar_angle_l/value	/jointset/ground_pelvis/pelvis_tilt/speed	/jointset/ground_pelvis/pelvis_tx/speed	/jointset/ground_pelvis/pelvis_ty/speed	/jointset/hip_l/hip_flexion_l/speed	/jointset/hip_l/hip_adduction_l/speed	/jointset/hip_l/hip_rotation_l/speed	/jointset/back/lumbar_extension/speed	/jointset/patellofemoral_l/patellar_flexion_l/speed	/jointset/knee_l/knee_flexion_l/speed	/jointset/knee_l/knee_adduction_l/speed	/jointset/knee_l/knee_rotation_l/speed	/jointset/ankle_l/ankle_angle_l/speed	/jointset/subtalar_l/subtalar_angle_l/speed	/forceset/tau_hip_flexion_l	/forceset/tau_hip_adduction_l	/forceset/tau_hip_rotation_l	/forceset/tau_knee_flexion_l	/forceset/tau_ankle_angle_l	/forceset/tau_subtalar_angle_l	/forceset/tau_lumbar_extension	lambda_cid13_p0	lambda_cid13_p1	lambda_cid13_p2	lambda_cid13_p3	lambda_cid13_p4	lambda_cid13_p5	lambda_cid14_p0	/jointset/ground_pelvis/pelvis_tilt/accel	/jointset/ground_pelvis/pelvis_tx/accel	/jointset/ground_pelvis/pelvis_ty/accel	/jointset/hip_l/hip_flexion_l/accel	/jointset/hip_l/hip_adduction_l/accel	/jointset/hip_l/hip_rotation_l/accel	/jointset/back/lumbar_extension/accel	/jointset/patellofemoral_l/patellar_flexion_l/accel	/jointset/knee_l/knee_flexion_l/accel	/jointset/knee_l/knee_adduction_l/accel	/jointset/knee_l/knee_rotation_l/accel	/jointset/ankle_l/ankle_angle_l/accel	/jointset/subtalar_l/subtalar_angle_l/accel	gamma_cid13_p0	gamma_cid13_p1	gamma_cid13_p2	gamma_cid13_p3	gamma_cid13_p4	gamma_cid13_p5	gamma_cid14_p0
1.5	-0.551544792922084	-0.04181860167486633	0.7905833142422887	1.202919027420811	-0.3457050244403754	-0.1175968581930238	-0.3427240011942982	0.5709842419745462	0.5709842419744657	-0.05422396408435807	-0.1743862358778432	0.01594978360069949	0.08122888010831424	1.067522014784267	0.4969519968750161	0.4748901007524014	-2.811114738499205	0.002738244711363606	-0.5172883856457229	0.6022767834161634	-1.549247749782372	-1.549247749782293	-0.2042817400675992	0.006099885096536729	0.08720439891655724	0.03499746758060326	-0.2021659906804183	0.008761217754130421	0.006489941306415176	-0.06681500691485422	0.03391552305554382	0.01815677615382093	0.1654554422065196	-12.4897072630519	-7.891946014555006	3.482475538953327	-7.232742347002706	-430.8031286086548	-67.68056947499609	-20.01113520308116	0.8107359530276044	0.8653392007095103	-0.5993849482394599	-1.753257458854956	0.2677621382153028	-0.1940831029801468	1.861786944029505	-0.6150240809642157	-0.615024080964235	-0.3280010732169684	0.2470448033581464	0.2889646853278419	0.366270254601478	-3.091315400442926e-08	1.41446260416697e-06	1.592288587062761e-07	2.911626532076708e-07	2.331997377280814e-07	-1.366437747180861e-07	2.100885128573419e-07
1.51	-0.5408298375555746	-0.03680636517246592	0.795301276598025	1.174722828238526	-0.3456650687088184	-0.1227815682004269	-0.3366100879200958	0.5554629823647675	0.5554629823647537	-0.05628343785798711	-0.1743157845911484	0.01683619633182626	0.08159634464057944	1.075292025113118	0.5054272829852435	0.4685980621891974	-2.827727933379257	0.005260413615900798	-0.5195937424637577	0.6204129443618103	-1.554795015771095	-1.554795015770894	-0.2075852160522748	0.008008672933345501	0.09008334258860429	0.03850534296623717	-0.1951797220351569	0.008387954752947733	0.006801915527924608	-0.06537742330526106	0.03120416942624011	0.01693567764817669	0.1602713813687238	-13.22499698641939	-7.423761643607984	3.625867909963535	-6.60739678792608	-426.9176322507752	-67.14505645149107	-20.52695458640289	0.733592407224085	0.8284827960323612	-0.6597135562888325	-1.555759313643583	0.2452796662130783	-0.2396338057193768	1.775591610450294	-0.4932456123928388	-0.4932456123745652	-0.3270394681103986	0.1655200415618873	0.2881815823055777	0.3442567150511741	-4.549768828623803e-08	1.502145911709684e-06	2.328958329360392e-07	3.054855125966338e-07	2.310381442222883e-07	-1.134872487674111e-07	2.074385239713164e-07
1.52	-0.5300424903188942	-0.03171140391299259	0.7999531985189438	1.146372415345225	-0.3455997242082881	-0.127987506142921	-0.3303176008483135	0.5398925165442044	0.539892516544231	-0.0583750501128822	-0.1742257005725233	0.0177515629745054	0.08199913003360229	1.082000388818378	0.5134969482895995	0.4616820137888771	-2.84195748070184	0.007815998506053124	-0.5215339726619637	0.637991542932178	-1.559088991942479	-1.559088991942157	-0.2107094363176554	0.01002643147893705	0.09299518122714909	0.04206163973214292	-0.1881934533899304	0.008014691751720596	0.007113889749310511	-0.06393983969567464	0.02849281579692395	0.01571457914248467	0.1550873205309063	-13.96438361421296	-6.952267945935856	3.765772184470544	-5.960448132960768	-423.0885350598724	-66.63496201920344	-21.0212466363189	0.5984066283092108	0.7842150395352423	-0.724186915662692	-1.276527947361111	0.2744453353383253	-0.1210577790144524	1.750274468973671	-0.3643661174964723	-0.3643661174965107	-0.2921499293579573	0.2688389451146685	0.2955436786274071	0.3759545306558397	-1.986340510953027e-08	1.462421392543006e-06	1.737308531217804e-08	2.875089557984755e-07	2.980805941456316e-07	-9.619395409854404e-08	2.306947052378546e-07
1.53	-0.5191931959710691	-0.02653788749139741	0.804532924330197	1.117891252981851	-0.3455093411848193	-0.1332098537390329	-0.3238525123651702	0.5242850828956847	0.5242850828956535	-0.06049888311910931	-0.1741142643400385	0.01869583534855841	0.08243688852424153	1.087675176500159	0.5211240415309837	0.4541643958079763	-2.853858821846776	0.01026435472522132	-0.522924714967682	0.6549157318055858	-1.56218500062477	-1.562185000624584	-0.214006774468188	0.01223300017379449	0.09585345417681554	0.04549348808930669	-0.1813084624651954	0.007613677953470469	0.0073861004885442	-0.0623579606537927	0.02554016967036943	0.01440937700886266	0.1499167789844078	-14.79673426983101	-6.434556260845435	3.905829993125078	-5.189058809044692	-419.3953522464659	-66.04180794315353	-21.49123434366071	0.5245516638874362	0.7396537353338445	-0.7802593557893005	-1.084470318531177	0.2304676718478108	-0.1462025492336383	1.646927812882062	-0.2503694055300004	-0.2503694055505247	-0.3407802881376795	0.1921921770445544	0.2801252965068662	0.3272194502330151	4.850337161685084e-08	1.2873260574976e-06	-5.054137417811556e-07	2.352142693015014e-07	4.386523402124315e-07	-8.51303426665978e-08	2.814761922914916e-07
1.54	-0.5082926463812709	-0.02129056068360958	0.8090345319383443	1.089303570582932	-0.345394387217831	-0.1384457327767817	-0.3172214946500214	0.5086530589279551	0.5086530589278651	-0.06265414041287869	-0.1739816371515321	0.01966852169078201	0.0829090493908496	1.092251437212935	0.5282590255281284	0.4460583731676566	-2.863261487810561	0.01273018721006323	-0.5242402609887268	0.6711773893333026	-1.564007055784446	-1.564007055784398	-0.2169942938281934	0.01426462268358191	0.09867797486130632	0.048942114925925	-0.174423471540476	0.007212664155203418	0.007658311227799815	-0.0607760816119178	0.02258752354380841	0.01310417487522092	0.1447462374379	-15.6327013755066	-5.916179818407342	4.045746280346147	-4.406670485106439	-415.7541313098333	-65.50624364260152	-21.93607656036663	0.3787012345081544	0.6857931906873784	-0.8418678475464562	-0.7767929111307353	0.2779405884730572	-0.1060185220797937	1.617768199835469	-0.109575412973736	-0.1095754129737446	-0.2301861712525314	0.2338497081006324	0.2887932255922917	0.3793102265467446	8.339727953514247e-08	1.240340977149255e-06	-7.744230790520787e-07	2.089921510035271e-07	5.292405283717429e-07	-6.268796128230658e-08	3.114296507836268e-07
1.55	-0.4973517862139658	-0.01597442796121775	0.8134522371314804	1.060634227644085	-0.3452548221534818	-0.143694107123045	-0.3104314695865426	0.4930090463473488	0.4930090463473074	-0.06483817086386666	-0.1738293619734912	0.02066915434834692	0.08341559807575101	1.095736641854916	0.5348763567955641	0.4373916566538853	-2.87018265717149	0.01517152540513048	-0.5253560152286318	0.6866929845058767	-1.564576481875639	-1.564576481875939	-0.2198096715977131	0.0162106919654238	0.1014380303364641	0.05235337937593373	-0.1675669294590345	0.006639215201544949	0.007911571778072777	-0.05934726860432703	0.01984421071294112	0.0116593809576197	0.1395624661882008	-16.42247884116493	-5.339803251197229	4.170175196717851	-3.632884909346318	-412.3252063255308	-64.9077365990772	-22.35642124839242	0.3058650991376782	0.6360717578706824	-0.8926087598558368	-0.5860743519112537	0.2253697385348639	-0.1023024305711556	1.49825934747314	0.002156423397433138	0.00215642334512309	-0.306671979483316	0.177827930782804	0.2680702411118434	0.3197656230759717	7.972462121802878e-08	1.34096119025621e-06	-7.510366128319794e-07	2.128101656304856e-07	5.622389650289507e-07	-2.713525799640121e-08	3.173855981070767e-07
1.56	-0.486381586996222	-0.01059484819353173	0.8177805681181662	1.031908413930961	-0.3450912158464809	-0.1489512287228302	-0.3034903277370371	0.4773658960319283	0.4773658960319674	-0.06705024677244198	-0.1736570576241488	0.02169707926719045	0.08395580561892206	1.098119247300683	0.5409484345869658	0.4281835318775845	-2.874555642665907	0.01753843574064932	-0.5259897116935514	0.7014007465386416	-1.563834602743252	-1.563834602743901	-0.2226033853544985	0.01827045694954047	0.1041364271169953	0.05567388657986443	-0.1607103873775851	0.006065766247894227	0.008164832328553745	-0.05791845559674315	0.01710089788207387	0.01021458704002431	0.1343786949385072	-17.21468496094502	-4.762425873159044	4.293787899546871	-2.85246789408699	-408.9284061528919	-64.36133887695443	-22.75168158520813	0.1581813952653714	0.5767424954805717	-0.9501495000523368	-0.267156137828263	0.2630550165633592	-0.009606967082693957	1.45620157187363	0.1526856317423788	0.1526856317423795	-0.2258533687056729	0.2565888485555636	0.2764614866670073	0.3611587773311379	7.540974499844434e-08	1.425760777892934e-06	-7.290667513405489e-07	2.15365817990491e-07	5.94101622192478e-07	9.434159098234846e-09	3.208935863494136e-07
1.57	-0.4753930984782506	-0.005157392275522317	0.8220142125765727	1.003151657369735	-0.3449042055421966	-0.1542125267486026	-0.2964063818781473	0.4617366248714613	0.4617366248714685	-0.06928985621727479	-0.1734636798531174	0.02275157506781963	0.08452884441473549	1.099387536157316	0.5464391953280454	0.4184628506601238	-2.876346994854189	0.01985781402820315	-0.526187491861676	0.715234496700591	-1.561791177363085	-1.561791177363239	-0.2252948868103924	0.02042922545736331	0.1067485905060684	0.05892422893125789	-0.1539525019181422	0.005380882606438914	0.008388784536115027	-0.05655716912597431	0.01439108263391141	0.0086611424669811	0.1292279930501989	-18.02061376166869	-4.134547722213385	4.408307915480513	-2.018664012265971	-405.8152713453606	-63.76666588925794	-23.12149997549983	0.08253792802369786	0.5197531917299912	-0.9952753896642753	-0.06778922338900986	0.2153146926488323	-0.01224246099428757	1.323872457534711	0.2643744696103296	0.2643744696845648	-0.2870112516992942	0.1989447033048392	0.2515123889249137	0.3053675205306953	7.02920964007715e-08	1.490784583691869e-06	-7.088676457599543e-07	2.16343517516805e-07	6.245445549889045e-07	4.727446845378424e-08	3.213416257403591e-07
